<?xml version="1.0" standalone="no"?>
<!DOCTYPE svg PUBLIC "-//W3C//DTD SVG 20010904//EN"
 "http://www.w3.org/TR/2001/REC-SVG-20010904/DTD/svg10.dtd">
<svg version="1.0" xmlns="http://www.w3.org/2000/svg"
 width="512.000000pt" height="271.000000pt" viewBox="0 0 512.000000 271.000000"
 preserveAspectRatio="xMidYMid meet">

<g transform="translate(0.000000,271.000000) scale(0.100000,-0.100000)"
fill="#000000" stroke="none">
<path d="M1360 2704 c-211 -36 -349 -119 -443 -265 -36 -56 -87 -171 -87 -196
0 -9 -18 -13 -70 -13 -79 0 -68 13 -95 -118 -8 -40 -15 -78 -15 -83 0 -5 29
-9 65 -9 36 0 65 -3 65 -6 0 -3 -52 -258 -115 -567 -63 -309 -115 -570 -115
-579 0 -17 15 -18 190 -18 105 0 190 3 190 8 1 4 54 266 119 582 l118 575 146
3 c165 3 148 -7 167 102 6 36 14 75 17 88 l5 22 -142 0 -142 0 6 38 c21 115
64 178 140 202 47 15 178 7 251 -15 31 -9 51 -11 55 -4 13 20 42 201 34 209
-26 24 -275 56 -344 44z"/>
<path d="M4688 2464 c-26 -124 -48 -227 -51 -230 -2 -2 -44 0 -93 5 -102 12
-189 -1 -280 -43 -247 -113 -464 -418 -505 -710 -10 -69 -9 -91 5 -146 40
-157 137 -219 309 -200 136 16 260 77 334 165 55 66 63 59 42 -37 -10 -46 -19
-89 -19 -95 0 -10 44 -13 188 -13 l187 0 154 753 c84 413 154 757 155 762 1 6
-70 11 -190 13 l-191 2 -45 -226z"/>
<path d="M276 2543 c-15 -76 -30 -148 -33 -160 l-5 -23 194 0 195 0 27 138
c15 75 30 147 33 160 l5 22 -194 0 -195 0 -27 -137z"/>
<path d="M1935 2235 c-239 -52 -421 -199 -536 -430 -87 -175 -104 -353 -44
-463 72 -132 218 -202 422 -203 123 0 208 19 320 72 211 100 377 304 435 531
52 206 -8 368 -165 449 -105 54 -297 74 -432 44z"/>
<path d="M3155 2234 c-101 -21 -257 -101 -333 -170 -177 -159 -280 -383 -270
-583 3 -67 10 -97 30 -137 68 -131 225 -206 432 -205 198 1 372 72 525 216
186 175 289 470 227 652 -22 65 -87 140 -154 176 -116 63 -301 83 -457 51z"/>
<path d="M215 2218 c-2 -7 -51 -248 -108 -535 l-104 -523 193 0 c107 0 194 1
194 3 0 1 47 239 105 527 58 288 105 528 105 532 0 5 -86 8 -190 8 -144 0
-192 -3 -195 -12z"/>
<path d="M1206 788 c88 -379 399 -677 794 -761 125 -26 373 -28 507 -3 247 45
465 138 648 276 36 27 67 44 71 39 3 -5 30 -78 59 -162 41 -118 54 -146 59
-127 21 88 165 795 162 797 -2 2 -175 2 -386 1 l-383 -3 122 -93 c66 -51 121
-97 121 -102 0 -12 -59 -62 -129 -109 -139 -94 -339 -177 -531 -218 -125 -26
-346 -24 -464 5 -257 64 -488 239 -618 470 -17 28 -34 52 -38 52 -5 0 -2 -28
6 -62z"/>
</g>
</svg>
